<?xml version="1.0" standalone="no"?>
<!DOCTYPE svg PUBLIC "-//W3C//DTD SVG 20010904//EN"
 "http://www.w3.org/TR/2001/REC-SVG-20010904/DTD/svg10.dtd">
<svg version="1.0" xmlns="http://www.w3.org/2000/svg"
 width="256.000000pt" height="256.000000pt" viewBox="0 0 256.000000 256.000000"
 preserveAspectRatio="xMidYMid meet">
<metadata>
Created by potrace 1.15, written by Peter Selinger 2001-2017
</metadata>
<g transform="translate(0.000000,256.000000) scale(0.100000,-0.100000)"
fill="#000000" stroke="none">
<path d="M0 1280 l0 -1280 1280 0 1280 0 0 1280 0 1280 -1280 0 -1280 0 0
-1280z m1875 1037 c56 -31 100 -101 121 -194 19 -88 15 -288 -9 -385 l-14 -56
76 -27 c287 -102 449 -256 425 -405 -10 -60 -72 -147 -146 -203 -66 -51 -206
-122 -296 -152 -46 -15 -53 -20 -48 -39 33 -138 39 -333 13 -429 -44 -163
-145 -235 -290 -208 -91 18 -228 90 -335 177 l-93 75 -42 -38 c-95 -88 -222
-165 -322 -196 -80 -25 -119 -28 -175 -16 -168 36 -238 266 -174 574 18 88 19
82 -13 88 -54 11 -206 80 -276 127 -228 149 -258 318 -85 475 67 60 191 128
311 170 42 15 77 31 77 36 0 4 -6 38 -14 76 -46 225 -21 419 67 512 43 45 84
61 155 61 73 0 149 -22 232 -67 73 -39 183 -118 219 -157 14 -14 29 -26 35
-26 6 0 46 29 88 64 207 173 389 230 513 163z"/>
<path d="M730 2228 c-14 -7 -36 -35 -50 -63 -21 -43 -25 -67 -28 -166 -4 -102
15 -270 32 -286 2 -3 59 5 126 16 68 12 137 21 155 21 29 0 39 8 72 52 21 29
66 86 101 126 34 41 62 78 62 83 0 18 -168 141 -246 180 -90 45 -180 60 -224
37z"/>
<path d="M1662 2220 c-83 -30 -236 -132 -295 -197 -16 -19 -16 -21 4 -39 12
-10 60 -67 106 -126 77 -98 88 -108 118 -108 18 0 86 -9 150 -20 64 -11 120
-20 125 -20 14 0 35 156 35 265 -1 232 -74 306 -243 245z"/>
<path d="M1254 1908 c-11 -13 -42 -49 -68 -80 l-48 -58 136 0 c116 0 136 2
129 14 -13 24 -116 146 -123 146 -4 0 -15 -10 -26 -22z"/>
<path d="M1157 1663 l-98 -4 -43 -67 c-24 -37 -73 -123 -111 -190 l-67 -122
64 -118 c36 -64 85 -149 110 -188 l46 -71 106 -7 c59 -4 159 -4 222 0 l114 7
56 89 c71 116 154 271 154 289 0 18 -104 207 -168 306 l-47 73 -76 0 c-42 0
-96 2 -120 3 -24 2 -88 2 -142 0z m231 -200 c120 -69 137 -242 33 -336 -138
-124 -353 -32 -355 152 -1 169 174 269 322 184z"/>
<path d="M790 1623 c-41 -8 -76 -16 -77 -17 -2 -2 8 -34 22 -72 40 -109 47
-124 54 -124 4 0 17 20 29 45 12 24 40 74 62 111 22 36 40 68 40 70 0 7 -55 2
-130 -13z"/>
<path d="M1698 1525 c37 -63 69 -115 72 -115 7 0 70 166 70 184 0 10 -28 19
-87 30 -49 9 -96 16 -105 16 -12 0 0 -28 50 -115z"/>
<path d="M530 1556 c-218 -77 -366 -203 -345 -295 19 -89 162 -196 351 -264
l72 -26 32 92 c19 51 46 120 61 154 l28 63 -26 57 c-14 31 -41 97 -58 147 -18
50 -37 91 -41 92 -5 1 -38 -8 -74 -20z"/>
<path d="M1926 1522 c-10 -31 -36 -98 -57 -148 l-38 -92 38 -88 c21 -49 46
-111 55 -139 27 -81 23 -80 116 -46 245 90 372 222 316 329 -33 63 -145 142
-278 195 -137 55 -132 56 -152 -11z"/>
<path d="M752 1068 c-46 -128 -47 -120 28 -134 36 -6 84 -14 108 -17 l43 -5
-17 26 c-10 15 -40 65 -67 112 -27 47 -52 89 -57 93 -4 5 -21 -29 -38 -75z"/>
<path d="M1731 1088 c-19 -35 -50 -87 -68 -117 -19 -29 -33 -54 -31 -56 5 -4
209 32 214 38 6 6 -66 197 -75 197 -4 0 -22 -28 -40 -62z"/>
<path d="M670 803 c-6 -26 -14 -107 -17 -179 -6 -154 9 -228 58 -277 29 -28
33 -29 99 -25 103 8 227 72 363 190 l38 33 -56 65 c-31 36 -77 93 -102 127
-45 61 -47 62 -102 68 -68 8 -230 34 -253 41 -13 4 -19 -6 -28 -43z"/>
<path d="M1810 839 c-19 -4 -71 -13 -115 -19 -44 -6 -94 -13 -111 -16 -23 -3
-40 -17 -65 -52 -18 -26 -63 -83 -98 -126 l-65 -80 50 -44 c67 -62 183 -137
250 -161 30 -12 78 -21 108 -21 44 0 56 4 79 28 45 47 60 97 65 218 4 97 -6
206 -24 267 -6 18 -20 20 -74 6z"/>
<path d="M1156 768 c11 -13 44 -51 73 -85 l52 -62 33 37 c17 20 49 58 70 85
l38 47 -143 0 -142 0 19 -22z"/>
</g>
</svg>
