<svg height="64" viewBox="0 0 64 64" width="64" xmlns="http://www.w3.org/2000/svg" xmlns:xlink="http://www.w3.org/1999/xlink"><linearGradient id="a"><stop offset="0" stop-color="#656565"/><stop offset="1" stop-color="#010101"/></linearGradient><linearGradient id="b" gradientTransform="matrix(432 0 0 460.8 -333.8 -365102.22)" gradientUnits="userSpaceOnUse" x1=".804" x2=".977" xlink:href="#a" y1="792.24402" y2="792.24402"/><linearGradient id="c" gradientTransform="matrix(432 0 0 460.8 -333.8 -364871.81)" gradientUnits="userSpaceOnUse" x1=".804" x2=".977" xlink:href="#a" y1="791.83099" y2="791.83099"/><linearGradient id="d"><stop offset="0" stop-color="#9f1c20"/><stop offset="1" stop-color="#ed2224"/></linearGradient><linearGradient id="e" gradientTransform="matrix(432 0 0 -460.8 -333.8 365323.41)" gradientUnits="userSpaceOnUse" x1=".804" x2=".977" xlink:href="#d" y1="792.92401" y2="792.92401"/><linearGradient id="f" gradientTransform="matrix(432 0 0 -460.8 -333.8 365553.81)" gradientUnits="userSpaceOnUse" x1=".804" x2=".977" xlink:href="#d" y1="793.33698" y2="793.33698"/><linearGradient id="g" gradientTransform="matrix(432 0 0 -460.8 -333.8 365784.22)" gradientUnits="userSpaceOnUse" x1=".804" x2=".977" xlink:href="#d" y1="793.75" y2="793.75"/><g transform="matrix(.49230769 0 0 .49230769 6.941539 39.876923)"><path d="m13.4-31s75 7.5 75 20v-30s0-12.5-75-20z" fill="url(#b)"/><path d="m13.4 9s75 7.5 75 20v-30s0-12.5-75-20z" fill="url(#c)"/><path d="m88.4-81v30s0 12.5-75 20v-30s75-7.5 75-20" fill="url(#e)"/><path d="m13.4-21s75-7.5 75-20v30s0 12.5-75 20z" fill="url(#f)"/><path d="m13.4 49v-30s75-7.5 75-20v30s0 12.5-75 20" fill="url(#g)"/></g></svg>